<?xml version="1.0" encoding="UTF-8"?>
<svg width="1091px" height="896px" viewBox="0 0 1091 896" version="1.1" xmlns="http://www.w3.org/2000/svg" xmlns:xlink="http://www.w3.org/1999/xlink">
    <!-- Generator: Sketch 52 (66869) - http://www.bohemiancoding.com/sketch -->
    <title>Path</title>
    <desc>Created with Sketch.</desc>
    <defs>
        <filter x="-2.5%" y="-3.1%" width="105.0%" height="106.2%" filterUnits="objectBoundingBox" id="filter-1">
            <feOffset dx="0" dy="4" in="SourceAlpha" result="shadowOffsetOuter1"></feOffset>
            <feGaussianBlur stdDeviation="5" in="shadowOffsetOuter1" result="shadowBlurOuter1"></feGaussianBlur>
            <feColorMatrix values="0 0 0 0 0   0 0 0 0 0   0 0 0 0 0  0 0 0 0.100062274 0" type="matrix" in="shadowBlurOuter1" result="shadowMatrixOuter1"></feColorMatrix>
            <feMerge>
                <feMergeNode in="shadowMatrixOuter1"></feMergeNode>
                <feMergeNode in="SourceGraphic"></feMergeNode>
            </feMerge>
        </filter>
        <path d="M389.037369,8.5411022 C405.339782,8.5411022 563.146621,8.5411022 587.3125,8.5411022 C611.478379,8.5411022 695.675573,-4.85193336 746.648438,3.14453125 C797.621302,11.1409959 835.917969,14.4189327 859.808594,14.4189327 C883.699219,14.4189327 925.320313,13.7421875 958.09375,23.8320313 C990.867188,33.921875 1019.85861,63.5897524 1036.32796,94.494489 C1052.79731,125.399226 1071.09375,224.414063 1071.09375,285.617188 C1071.09375,346.820313 1071.48951,477.714844 1062.23438,536.40625 C1052.97924,595.097656 1033.53841,696.305926 1023.55752,713.201393 C1013.57663,730.096861 1006.24032,756.973219 969.853125,756.973219 C933.465928,756.973219 901.441337,771.929688 864.882813,771.929688 C828.324288,771.929688 785.316484,764.217272 757.789962,764.217272 C730.263441,764.217272 601.730747,767.818359 584.347656,767.818359 C566.964566,767.818359 511.934657,764.217272 500.037109,764.217272 C488.139562,764.217272 483.131836,782.382812 475.831055,797.551758 C468.530273,812.720703 450.419515,842.321999 442.261719,854.143555 C434.103923,865.965111 426.043945,876.160376 421.400581,876.160376 C416.757216,876.160376 436.771239,826.402983 442.261719,808.021484 C447.752199,789.639986 457.05298,770.390212 447.117188,761.967773 C437.181395,753.545335 348.909682,757.601396 310.6875,756.973219 C272.465318,756.345043 204.9375,754.856032 156.339844,746.742188 C107.742188,738.628343 60.3710937,727.251128 23.1132813,686.96875 C-14.1445312,646.686372 6.2890625,490.59488 6.2890625,437.580188 C6.2890625,384.565495 15,278.288713 15,238.729772 C15,199.170831 30.2788449,117.636799 40.9098986,94.494489 C51.5409522,71.3521788 80.442482,48.7150633 91.7500573,48.7150633 C103.057633,48.7150633 134.742188,43.6796875 173.96875,35.0820313 C213.195313,26.484375 260.489283,14.4189327 278.742188,14.4189327 C296.995092,14.4189327 372.734956,8.5411022 389.037369,8.5411022 Z" id="path-2"></path>
    </defs>
    <g id="Page-1" stroke="none" stroke-width="1" fill="none" fill-rule="evenodd">
        <g id="FirstScreen" transform="translate(-170.000000, -80.000000)">
            <g id="MAIN" filter="url(#filter-1)" transform="translate(180.000000, 86.000000)">
                <mask id="mask-3" fill="white">
                    <use xlink:href="#path-2"></use>
                </mask>
                <use id="Path" fill="#A8D26C" fill-rule="nonzero" xlink:href="#path-2"></use>
            </g>
        </g>
    </g>
</svg>