<?xml version="1.0" encoding="UTF-8"?>
<svg width="53px" height="95px" viewBox="0 0 53 95" version="1.1" xmlns="http://www.w3.org/2000/svg" xmlns:xlink="http://www.w3.org/1999/xlink">
    <!-- Generator: Sketch 52 (66869) - http://www.bohemiancoding.com/sketch -->
    <title>fb_logo</title>
    <desc>Created with Sketch.</desc>
    <g id="Page-1" stroke="none" stroke-width="1" fill="none" fill-rule="evenodd">
        <g id="fb_logo" transform="translate(-2.000000, -3.000000)" fill="#3B5998">
            <path d="M54.7685714,3.66353571 L54.2735714,20.6196071 C54.2735714,20.6196071 52.1075,20.5313929 44.5035714,20.6196071 C37.0328571,20.7081786 36.9442857,26.2781786 36.9442857,26.5435357 L36.8557143,40.6456786 L54.2735714,40.9549643 L51.7535714,58.99175 L36.9442857,58.99175 L36.5464286,97.0096071 L18.5982143,97.0096071 L18.1121429,59.0799643 L2.37428571,58.99175 L2.81642857,40.6456786 L18.2889286,40.6456786 C18.2889286,40.6456786 18.2889286,27.3863929 18.2889286,27.3835357 C18.2889286,22.1949643 19.5292857,16.5646071 22.4860714,12.23675 C25.0942857,8.41925 29.0378571,5.90032143 33.4353571,4.61103571 C33.4353571,4.61103571 42.6578571,1.71710714 54.7685714,3.66353571 Z" id="Path"></path>
        </g>
    </g>
</svg>