<?xml version="1.0" encoding="UTF-8"?>
<svg width="122px" height="100px" viewBox="0 0 122 100" version="1.1" xmlns="http://www.w3.org/2000/svg" xmlns:xlink="http://www.w3.org/1999/xlink">
    <!-- Generator: Sketch 52 (66869) - http://www.bohemiancoding.com/sketch -->
    <title>twitter_logo</title>
    <desc>Created with Sketch.</desc>
    <g id="Page-1" stroke="none" stroke-width="1" fill="none" fill-rule="evenodd">
        <g id="twitter_logo" fill="#1DA1F2">
            <path d="M38.6607224,99.2600082 C84.5629184,99.2600082 109.663282,61.2323959 109.663282,28.2574571 C109.663282,27.1773429 109.641282,26.102102 109.592833,25.0317224 C114.465482,21.5092082 118.700776,17.1133592 122.040841,12.1093388 C117.56958,14.0968367 112.757747,15.4348122 107.709939,16.0381184 C112.862351,12.9486122 116.817882,8.06136735 118.683747,2.23510204 C113.86218,5.09349796 108.522453,7.17100816 102.837286,8.29246939 C98.2833143,3.4417102 91.8002286,0.408163265 84.6214,0.408163265 C70.8402816,0.408163265 59.6645592,11.5838857 59.6645592,25.3601347 C59.6645592,27.3184367 59.883498,29.2232286 60.3116531,31.0501633 C39.570649,30.0065469 21.1796,20.0763592 8.8726898,4.97673061 C6.72949796,8.66466939 5.49370204,12.9486122 5.49370204,17.5196122 C5.49370204,26.1775143 9.89927755,33.8209878 16.5988694,38.292249 C12.5046776,38.165751 8.65861224,37.041849 5.29664898,35.1711224 C5.29297551,35.2758245 5.29297551,35.377902 5.29297551,35.4898041 C5.29297551,47.5753429 13.8949265,57.6660898 25.3139143,59.9528041 C23.2169469,60.5244857 21.0105061,60.831 18.7335224,60.831 C17.1279551,60.831 15.5637429,60.6729755 14.0433224,60.3809592 C17.2203959,70.296551 26.4329429,77.5118694 37.3556694,77.7137878 C28.8145347,84.4085102 18.0548041,88.3956735 6.36092653,88.3956735 C4.34909796,88.3956735 2.36160408,88.2812408 0.408163265,88.0502286 C11.4525224,95.1293265 24.5670857,99.2600082 38.6620122,99.2600082" id="path3611"></path>
        </g>
    </g>
</svg>